<mxfile host="app.diagrams.net" modified="2022-07-10T16:15:52.987Z" agent="5.0 (Windows NT 10.0; Win64; x64) AppleWebKit/537.36 (KHTML, like Gecko) Chrome/103.0.0.0 Safari/537.36" etag="kSw5oWTYcbDg1dLW1AiK" version="20.0.3" type="github">
  <diagram id="V0XTJQ1My1xOYb-Hkxao" name="Page-1">
    <mxGraphModel dx="1662" dy="762" grid="1" gridSize="10" guides="1" tooltips="1" connect="1" arrows="1" fold="1" page="1" pageScale="1" pageWidth="850" pageHeight="1100" math="0" shadow="0">
      <root>
        <mxCell id="0" />
        <mxCell id="1" parent="0" />
        <mxCell id="1Os0Uc3dG7jEt1f68tgR-15" style="edgeStyle=orthogonalEdgeStyle;rounded=0;orthogonalLoop=1;jettySize=auto;html=1;entryX=0.042;entryY=0.267;entryDx=0;entryDy=0;entryPerimeter=0;" edge="1" parent="1" source="1Os0Uc3dG7jEt1f68tgR-1" target="1Os0Uc3dG7jEt1f68tgR-13">
          <mxGeometry relative="1" as="geometry">
            <mxPoint x="415" y="150" as="targetPoint" />
            <Array as="points">
              <mxPoint x="290" y="200" />
              <mxPoint x="290" y="140" />
              <mxPoint x="415" y="140" />
            </Array>
          </mxGeometry>
        </mxCell>
        <mxCell id="1Os0Uc3dG7jEt1f68tgR-11" style="edgeStyle=orthogonalEdgeStyle;rounded=0;orthogonalLoop=1;jettySize=auto;html=1;entryX=0;entryY=0.5;entryDx=0;entryDy=0;" edge="1" parent="1" source="1Os0Uc3dG7jEt1f68tgR-2" target="1Os0Uc3dG7jEt1f68tgR-10">
          <mxGeometry relative="1" as="geometry">
            <Array as="points">
              <mxPoint x="330" y="280" />
              <mxPoint x="330" y="385" />
            </Array>
          </mxGeometry>
        </mxCell>
        <mxCell id="1Os0Uc3dG7jEt1f68tgR-14" style="edgeStyle=orthogonalEdgeStyle;rounded=0;orthogonalLoop=1;jettySize=auto;html=1;entryX=0;entryY=0.5;entryDx=0;entryDy=0;" edge="1" parent="1" source="1Os0Uc3dG7jEt1f68tgR-2" target="1Os0Uc3dG7jEt1f68tgR-13">
          <mxGeometry relative="1" as="geometry">
            <Array as="points">
              <mxPoint x="330" y="280" />
              <mxPoint x="330" y="170" />
            </Array>
          </mxGeometry>
        </mxCell>
        <mxCell id="1Os0Uc3dG7jEt1f68tgR-7" value="Specialties" style="swimlane;" vertex="1" parent="1">
          <mxGeometry x="37.5" y="90" width="215" height="360" as="geometry">
            <mxRectangle x="37.5" y="90" width="100" height="30" as="alternateBounds" />
          </mxGeometry>
        </mxCell>
        <mxCell id="1Os0Uc3dG7jEt1f68tgR-1" value="Machine Learning / Deep Learning &amp;amp; Data Science" style="rounded=1;whiteSpace=wrap;html=1;" vertex="1" parent="1Os0Uc3dG7jEt1f68tgR-7">
          <mxGeometry x="12.5" y="80" width="190" height="60" as="geometry" />
        </mxCell>
        <mxCell id="1Os0Uc3dG7jEt1f68tgR-2" value="Real Time Systems &amp;amp; Robotics / Automation&amp;nbsp;" style="rounded=1;whiteSpace=wrap;html=1;" vertex="1" parent="1Os0Uc3dG7jEt1f68tgR-7">
          <mxGeometry x="12.5" y="160" width="190" height="60" as="geometry" />
        </mxCell>
        <mxCell id="1Os0Uc3dG7jEt1f68tgR-4" value="Optimizations / Algorithms / Computation" style="rounded=1;whiteSpace=wrap;html=1;" vertex="1" parent="1Os0Uc3dG7jEt1f68tgR-7">
          <mxGeometry x="12.5" y="240" width="190" height="60" as="geometry" />
        </mxCell>
        <mxCell id="1Os0Uc3dG7jEt1f68tgR-8" value="Applications" style="swimlane;" vertex="1" parent="1">
          <mxGeometry x="370" y="90" width="200" height="360" as="geometry">
            <mxRectangle x="370" y="90" width="110" height="30" as="alternateBounds" />
          </mxGeometry>
        </mxCell>
        <mxCell id="1Os0Uc3dG7jEt1f68tgR-10" value="Hard Sciences / Engineering" style="ellipse;whiteSpace=wrap;html=1;" vertex="1" parent="1Os0Uc3dG7jEt1f68tgR-8">
          <mxGeometry x="40" y="260" width="120" height="70" as="geometry" />
        </mxCell>
        <mxCell id="1Os0Uc3dG7jEt1f68tgR-13" value="Technology Sector" style="ellipse;whiteSpace=wrap;html=1;" vertex="1" parent="1Os0Uc3dG7jEt1f68tgR-8">
          <mxGeometry x="40" y="50" width="120" height="60" as="geometry" />
        </mxCell>
        <mxCell id="1Os0Uc3dG7jEt1f68tgR-19" value="Business Optimization / Financial Markets" style="ellipse;whiteSpace=wrap;html=1;" vertex="1" parent="1Os0Uc3dG7jEt1f68tgR-8">
          <mxGeometry x="40" y="120" width="120" height="60" as="geometry" />
        </mxCell>
        <mxCell id="1Os0Uc3dG7jEt1f68tgR-24" value="Social Science &amp;amp;&amp;nbsp; Economics" style="ellipse;whiteSpace=wrap;html=1;" vertex="1" parent="1Os0Uc3dG7jEt1f68tgR-8">
          <mxGeometry x="40" y="190" width="120" height="60" as="geometry" />
        </mxCell>
        <mxCell id="1Os0Uc3dG7jEt1f68tgR-9" value="Settings" style="swimlane;" vertex="1" parent="1">
          <mxGeometry x="610" y="90" width="200" height="360" as="geometry" />
        </mxCell>
        <mxCell id="1Os0Uc3dG7jEt1f68tgR-16" value="Other Applications" style="swimlane;" vertex="1" parent="1">
          <mxGeometry x="370" y="450" width="200" height="270" as="geometry">
            <mxRectangle x="370" y="450" width="200" height="30" as="alternateBounds" />
          </mxGeometry>
        </mxCell>
        <mxCell id="1Os0Uc3dG7jEt1f68tgR-17" value="Cyber Security / Cryptology" style="ellipse;whiteSpace=wrap;html=1;" vertex="1" parent="1Os0Uc3dG7jEt1f68tgR-16">
          <mxGeometry x="20" y="120" width="150" height="60" as="geometry" />
        </mxCell>
        <mxCell id="1Os0Uc3dG7jEt1f68tgR-18" value="Web Search / Hosting / Routing" style="ellipse;whiteSpace=wrap;html=1;" vertex="1" parent="1Os0Uc3dG7jEt1f68tgR-16">
          <mxGeometry x="20" y="40" width="150" height="60" as="geometry" />
        </mxCell>
        <mxCell id="1Os0Uc3dG7jEt1f68tgR-27" style="edgeStyle=orthogonalEdgeStyle;rounded=0;orthogonalLoop=1;jettySize=auto;html=1;exitX=0.5;exitY=1;exitDx=0;exitDy=0;" edge="1" parent="1Os0Uc3dG7jEt1f68tgR-16" source="1Os0Uc3dG7jEt1f68tgR-18" target="1Os0Uc3dG7jEt1f68tgR-18">
          <mxGeometry relative="1" as="geometry" />
        </mxCell>
        <mxCell id="1Os0Uc3dG7jEt1f68tgR-30" value="OTHER///////////////" style="ellipse;whiteSpace=wrap;html=1;" vertex="1" parent="1Os0Uc3dG7jEt1f68tgR-16">
          <mxGeometry x="20" y="200" width="150" height="60" as="geometry" />
        </mxCell>
        <mxCell id="1Os0Uc3dG7jEt1f68tgR-20" style="edgeStyle=orthogonalEdgeStyle;rounded=0;orthogonalLoop=1;jettySize=auto;html=1;entryX=0;entryY=0.5;entryDx=0;entryDy=0;" edge="1" parent="1" source="1Os0Uc3dG7jEt1f68tgR-2" target="1Os0Uc3dG7jEt1f68tgR-19">
          <mxGeometry relative="1" as="geometry">
            <Array as="points">
              <mxPoint x="330" y="280" />
              <mxPoint x="330" y="240" />
            </Array>
          </mxGeometry>
        </mxCell>
        <mxCell id="1Os0Uc3dG7jEt1f68tgR-25" style="edgeStyle=orthogonalEdgeStyle;rounded=0;orthogonalLoop=1;jettySize=auto;html=1;entryX=0;entryY=0.5;entryDx=0;entryDy=0;" edge="1" parent="1" source="1Os0Uc3dG7jEt1f68tgR-1" target="1Os0Uc3dG7jEt1f68tgR-24">
          <mxGeometry relative="1" as="geometry">
            <mxPoint x="290" y="320" as="targetPoint" />
            <Array as="points">
              <mxPoint x="290" y="200" />
              <mxPoint x="290" y="310" />
            </Array>
          </mxGeometry>
        </mxCell>
        <mxCell id="1Os0Uc3dG7jEt1f68tgR-28" style="edgeStyle=orthogonalEdgeStyle;rounded=0;orthogonalLoop=1;jettySize=auto;html=1;entryX=0.05;entryY=0.771;entryDx=0;entryDy=0;entryPerimeter=0;" edge="1" parent="1" source="1Os0Uc3dG7jEt1f68tgR-4" target="1Os0Uc3dG7jEt1f68tgR-10">
          <mxGeometry relative="1" as="geometry">
            <mxPoint x="416" y="410" as="targetPoint" />
            <Array as="points">
              <mxPoint x="290" y="360" />
              <mxPoint x="290" y="430" />
              <mxPoint x="416" y="430" />
            </Array>
          </mxGeometry>
        </mxCell>
        <mxCell id="1Os0Uc3dG7jEt1f68tgR-29" style="edgeStyle=orthogonalEdgeStyle;rounded=0;orthogonalLoop=1;jettySize=auto;html=1;entryX=0.05;entryY=0.2;entryDx=0;entryDy=0;entryPerimeter=0;" edge="1" parent="1" source="1Os0Uc3dG7jEt1f68tgR-1" target="1Os0Uc3dG7jEt1f68tgR-19">
          <mxGeometry relative="1" as="geometry">
            <Array as="points">
              <mxPoint x="416" y="200" />
            </Array>
          </mxGeometry>
        </mxCell>
      </root>
    </mxGraphModel>
  </diagram>
</mxfile>
